Coordinates
version=1
nRows=12
nColumns=24
inDegrees=yes

Units are S.I. units (second, meters, Newtons, ...)
Angles are in degrees.

endheader
time	pelvis_tilt	pelvis_list	pelvis_rotation	pelvis_tx	pelvis_ty	pelvis_tz	hip_flexion_r	hip_adduction_r	hip_rotation_r	knee_angle_r	ankle_angle_r	subtalar_angle_r	mtp_angle_r	hip_flexion_l	hip_adduction_l	hip_rotation_l	knee_angle_l	ankle_angle_l	subtalar_angle_l	mtp_angle_l	lumbar_extension	lumbar_bending	lumbar_rotation
      1.08733333	      6.36864219	     -5.68548963	     -7.07834045	     -0.06573460	      1.00562985	      0.28916802	    -22.99699975	      4.53531995	     -2.34506910	     -3.36791276	      6.68413098	     -3.86947687	      2.63735513	     14.65179434	     -7.71133216	     -9.65478030	      3.17418574	      2.53622686	    -13.14632416	     -9.73207930	    -17.53163615	      5.53152273	      9.50977695
      1.09150000	      6.47670898	     -5.57651434	     -7.34102669	     -0.06003361	      1.00525633	      0.28944488	    -23.30443369	      4.23498517	     -2.18629367	     -3.63425021	      6.73597997	     -3.74095970	      2.79444219	     14.55300006	     -7.64287545	     -9.69951900	      2.68926869	      2.40298813	    -13.41589898	     -9.70283926	    -17.63544694	      5.25013212	      9.80757386
      1.09566667	      6.58475791	     -5.44968521	     -7.60734376	     -0.05431899	      1.00493184	      0.28970868	    -23.59175017	      3.91139605	     -2.01546241	     -3.92833262	      6.74792076	     -3.65343402	      2.99059061	     14.45621391	     -7.55403568	     -9.74053526	      2.15053338	      2.27735512	    -13.68226685	     -9.65558103	    -17.75518383	      4.95499098	     10.07553675
      1.09983333	      6.66597998	     -5.32292430	     -7.86362768	     -0.04855227	      1.00460459	      0.28997516	    -23.84884515	      3.59614273	     -1.83035585	     -4.22647967	      6.76897779	     -3.57243765	      3.15410319	     14.39949251	     -7.46595100	     -9.78724084	      1.55032664	      2.12695621	    -13.98727194	     -9.61108686	    -17.81331429	      4.65448311	     10.29330887
      1.10400000	      6.78344389	     -5.18258840	     -8.12894831	     -0.04279275	      1.00438572	      0.29022018	    -24.11423938	      3.25121194	     -1.67265810	     -4.56865068	      6.72936116	     -3.49314313	      3.35675586	     14.29120294	     -7.35538606	     -9.85012976	      0.94496907	      1.90628832	    -14.31810514	     -9.54950306	    -17.92901753	      4.32931296	     10.56552875
      1.10816667	      6.82836145	     -5.04179301	     -8.36960364	     -0.03697310	      1.00410063	      0.29041087	    -24.29404299	      2.92671415	     -1.50767200	     -4.92718582	      6.66375048	     -3.45536245	      3.46640040	     14.28036964	     -7.24629269	     -9.89525174	      0.27816091	      1.73232389	    -14.62605791	     -9.51490876	    -17.95123615	      4.02645698	     10.70334154
      1.11233333	      6.90959294	     -4.88678984	     -8.64006821	     -0.03112746	      1.00394278	      0.29062794	    -24.49079784	      2.56501447	     -1.33804014	     -5.31479810	      6.58241664	     -3.38006916	      3.61740537	     14.19789504	     -7.11745277	     -9.99911505	     -0.34238013	      1.37215604	    -15.02671644	     -9.46643868	    -18.00397030	      3.69665663	     10.96747911
      1.11650000	      7.07365901	     -4.74696634	     -8.85658330	     -0.02532711	      1.00393178	      0.29071901	    -24.77138423	      2.22099083	     -1.20931408	     -5.70113213	      6.47370661	     -3.31071401	      3.92791987	     14.03397499	     -6.97522874	    -10.07210654	     -0.96554734	      0.96654567	    -15.41946307	     -9.35373562	    -18.16202688	      3.38482405	     11.31062549
      1.12066667	      7.09354690	     -4.58077498	     -9.08478617	     -0.01937910	      1.00377221	      0.29084565	    -24.87358080	      1.87229137	     -1.08287693	     -6.13424009	      6.27259718	     -3.28796005	      4.05410542	     14.02805150	     -6.83175877	    -10.19791327	     -1.61950184	      0.61666923	    -15.73506809	     -9.31031385	    -18.12042380	      3.06181433	     11.38067708
      1.12483333	      7.15302465	     -4.42123144	     -9.30648297	     -0.01346278	      1.00373204	      0.29090456	    -24.99396031	      1.52156732	     -0.95844627	     -6.60572993	      6.08852060	     -3.24423558	      4.22638533	     13.95751528	     -6.67855628	    -10.30325188	     -2.22021193	      0.11432248	    -16.15353289	     -9.25043340	    -18.13890683	      2.74501634	     11.59254493
      1.12900000	      7.22451747	     -4.25529591	     -9.49036491	     -0.00751245	      1.00374774	      0.29087236	    -25.11413259	      1.17393467	     -0.88494752	     -7.09303607	      5.84559822	     -3.20678029	      4.41528083	     13.87748541	     -6.50493507	    -10.40346842	     -2.81930446	     -0.38671243	    -16.54562540	     -9.18338395	    -18.16492112	      2.42962005	     11.78045090
      1.13316667	      7.33718920	     -4.08782422	     -9.59717597	     -0.00156658	      1.00383734	      0.29062357	    -25.25738187	      0.83648923	     -0.94609629	     -7.60795388	      5.54459229	     -3.20223973	     11.87079084	     13.76261719	     -6.29320784	    -10.41890959	     -3.39658818	     -0.94947393	    -17.05873502	     -6.24561676	    -18.24300059	      2.13640773	     11.92973473
